<?xml version='1.0' encoding='UTF-8'?>
<svg viewBox="-0.0125 -2 32 32" xmlns="http://www.w3.org/2000/svg" xmlns:xlink="http://www.w3.org/1999/xlink">
  <g id="Layer_1" transform="translate(-0.0125010013580322, -4)" style="enable-background:new 0 0 32 32">
    <g id="Clock">
      <path d="M16, 4C9.4, 4 4, 9.4 4, 16C4, 22.6 9.4, 28 16, 28C22.6, 28 28, 22.6 28, 16C28, 9.4 22.6, 4 16, 4zM16, 26C10.5, 26 6, 21.5 6, 16C6, 10.5 10.5, 6 16, 6C21.5, 6 26, 10.5 26, 16C26, 21.5 21.5, 26 16, 26z" fill="#D11C1C" style="fill:#4B286D" />
    </g>
  </g>
  <g id="Layer_1" transform="translate(-0.0125007629394531, -4)" style="enable-background:new 0 0 32 32">
    <g id="Clock">
      <polygon points="16,16 16,8 14,8 14,18 24,18 24,16  " fill="#727272" style="fill:#4B286D" />
    </g>
  </g>
  <g id="Layer_1" transform="translate(19.9875011444092, 12)" style="enable-background:new 0 0 16 16">
    <g transform="matrix(-1, 0, 0, 1, 12, 0)">
      <g id="List_1_">
        <path d="M13, 16L3, 16C2.5, 16 2, 15.6 2, 15L2, 1C2, 0.4 2.5, 0 3, 0L13, 0C13.6, 0 14, 0.4 14, 1L14, 15C14, 15.6 13.6, 16 13, 16z" fill="#727272" style="fill:#66CC00" />
      </g>
    </g>
  </g>
  <g id="Layer_1" transform="translate(23.9874992370605, 12)" style="enable-background:new 0 0 16 16">
    <g transform="matrix(-1, 0, 0, 1, 8, 0)">
      <g id="List_1_">
        <rect x="4" y="2" width="8" height="12" fill="#FFFFFF" class="White" />
      </g>
    </g>
  </g>
  <g id="Layer_1" transform="translate(27.9874992370605, 12)" style="enable-background:new 0 0 16 16">
    <g transform="matrix(-1, 0, 0, 1, 4, 0)">
      <g id="List_1_">
        <rect x="6" y="4" width="4" height="2" fill="#727272" style="fill:#4B286D" />
      </g>
    </g>
  </g>
  <g id="Layer_1" transform="translate(27.9874992370605, 12)" style="enable-background:new 0 0 16 16">
    <g transform="matrix(-1, 0, 0, 1, 4, 0)">
      <g id="List_1_">
        <rect x="6" y="8" width="4" height="2" fill="#727272" style="fill:#4B286D" />
      </g>
    </g>
  </g>
  <g id="Layer_1" transform="translate(11.9874992370605, 4)" style="enable-background:new 0 0 16 16">
    <g transform="matrix(-1, 0, 0, 1, 4, 0)">
      <g id="Edit_1_">
        <polygon points="0,16 4,16 0,12  " fill="#1177D7" style="fill:#2B8000" />
      </g>
    </g>
  </g>
  <g id="Layer_1" transform="translate(5.3103008972168, 3.99999993133545)" style="enable-background:new 0 0 16 16">
    <g transform="matrix(-1, 0, 0, 1, 10.6772003173828, 0)">
      <g id="Edit_1_">
        <rect x="1.9" y="6.5" width="9.5" height="5.6" fill="#1177D7" transform="matrix(0.7071, -0.7071, 0.7071, 0.7071, -4.6432, 7.4493)" style="fill:#2B8000" />
      </g>
    </g>
  </g>
  <g id="Layer_1" transform="translate(9.40000114440918, 4.00000057220459)" style="enable-background:new 0 0 16 16">
    <g transform="matrix(-1, 0, 0, 1, 6.58750009536743, 0)">
      <g id="Edit_1_">
        <path d="M15.6, 2.5L13.5, 0.4C13, -0.1 12.1, -0.1 11.6, 0.4L9.4, 2.7L13.4, 6.7L15.7, 4.4C16.1, 3.9 16.1, 3 15.6, 2.5z" fill="#1177D7" style="fill:#2B8000" />
      </g>
    </g>
  </g>
  <g id="Layer_1" transform="translate(10.6843014984131, 4.00000022735596)" style="enable-background:new 0 0 16 16">
    <g transform="matrix(-1, 0, 0, 1, 5.30319976806641, 0)">
      <g id="Edit_1_">
        <rect x="1.7" y="10.5" width="1.9" height="5.6" fill="#FFFFFF" class="White" transform="matrix(0.7071, -0.7071, 0.7071, 0.7071, -8.6546, 5.7876)" />
      </g>
    </g>
  </g>
  <g id="Layer_1" transform="translate(10.684302897644, 4.00000004882813)" style="enable-background:new 0 0 16 16">
    <g transform="matrix(-1, 0, 0, 1, 5.30319976806641, 0)">
      <g id="Edit_1_">
        <rect x="9.7" y="2.5" width="1.9" height="5.6" fill="#FFFFFF" class="White" transform="matrix(0.7071, -0.7071, 0.7071, 0.7071, -0.6318, 9.1109)" />
      </g>
    </g>
  </g>
</svg>