<?xml version='1.0' encoding='UTF-8'?>
<svg x="0px" y="0px" viewBox="2029 380 29.6 32" version="1.1" xmlns="http://www.w3.org/2000/svg" xmlns:xlink="http://www.w3.org/1999/xlink" xml:space="preserve" id="Layer_1" style="enable-background:new 2029 380 29.6 32">
  <style type="text/css">
	.st0{fill:#2684FF;}
	.st1{fill:url(#SVGID_1_);}
	.st2{fill:url(#SVGID_2_);}
</style>
  <path d="M2058.3,395.1l-13.2-13.8l-1.3-1.3l-9.9,10.4l-4.5,4.7c-0.5,0.5-0.5,1.3,0,1.8l9.1,9.5l5.4,5.6l9.9-10.4  l0.2-0.2l4.4-4.6C2058.8,396.4,2058.8,395.6,2058.3,395.1C2058.3,395.1,2058.3,395.1,2058.3,395.1L2058.3,395.1z M2043.8,400.7  l-4.5-4.7l4.5-4.7l4.5,4.7L2043.8,400.7z" class="st0" />
  <linearGradient x1="1778.9293px" y1="561.6992px" x2="1778.3361px" y2="562.2924px" gradientUnits="userSpaceOnUse" spreadMethod="pad" gradientTransform="matrix(11.028, 0, 0, 11.028, -17575.0078, -5807.9336)" id="SVGID_1_">
    <stop offset="18%" style="stop-color:#0052CC" />
    <stop offset="100%" style="stop-color:#2684FF" />
  </linearGradient>
  <path d="M2043.8,391.3c-3-3.1-3-8.1,0-11.2l-9.9,10.3l5.4,5.6L2043.8,391.3z" class="st1" />
  <linearGradient x1="1779.072px" y1="563.4176px" x2="1779.6641px" y2="562.8257px" gradientUnits="userSpaceOnUse" spreadMethod="pad" gradientTransform="matrix(11.028, 0, 0, 11.028, -17575.0078, -5807.9336)" id="SVGID_2_">
    <stop offset="18%" style="stop-color:#0052CC" />
    <stop offset="100%" style="stop-color:#2684FF" />
  </linearGradient>
  <path d="M2048.4,396l-4.5,4.7c3,3.1,3,8.2,0,11.3l9.9-10.4L2048.4,396z" class="st2" />
</svg>