<?xml version='1.0' encoding='UTF-8'?>
<svg viewBox="-2.4575 -2 32 32" xmlns="http://www.w3.org/2000/svg" xmlns:xlink="http://www.w3.org/1999/xlink">
  <linearGradient x1="102.4px" y1="218.63px" x2="56.15px" y2="172.39px" gradientUnits="userSpaceOnUse" spreadMethod="pad" gradientTransform="matrix(1, 0, 0, -1, 0, 264)" id="a" tag="staticElement_id-1575501350">
    <stop offset="18%" stop-color="#0052cc" />
    <stop offset="100%" stop-color="#2684ff" />
  </linearGradient>
  <linearGradient x1="114.65px" y1="85.77px" x2="160.81px" y2="131.92px" gradientUnits="objectBoundingBox" spreadMethod="pad" id="b" tag="staticElement_id654276471" />
  <g transform="translate(0.3235, -0.1685)">
    <g transform="matrix(0.0113347610458732, 0, 0, 0.0113347610458732, 0, 0)">
      <g transform="matrix(11.0280208587646, 0, 0, 11.0280208587646, -28.562572479248, 14.8616943359375)">
        <path d="M214.06, 105.73L117.67, 9.34L108.33, 0L35.77, 72.56L2.59, 105.73A8.89 8.89 0 0 0 2.59, 118.27L68.88, 184.56L108.33, 224L180.88, 151.44L182.01, 150.32L214.06, 118.32A8.87 8.87 0 0 0 214.06, 105.73zM108.33, 145.12L75.21, 112L108.33, 78.88L141.44, 112z" fill="#2684ff" />
      </g>
    </g>
  </g>
  <g transform="translate(0.323499389648438, -0.168500033378601)">
    <g transform="matrix(0.0113347610458732, 0, 0, 0.0113347610458732, 0, 0)">
      <g transform="matrix(11.0280208587646, 0, 0, 11.0280208587646, -28.562572479248, 14.8616943359375)">
        <path d="M108.33, 78.88A55.75 55.75 0 0 1 108.09, 0.27L35.62, 72.71L75.06, 112.15z" fill="url(#a)" />
      </g>
    </g>
  </g>
  <g transform="translate(0.323499542236329, -0.168501182556152)">
    <g transform="matrix(0.0113347610458732, 0, 0, 0.0113347610458732, 0, 0)">
      <g transform="matrix(11.0280208587646, 0, 0, 11.0280208587646, -28.562572479248, 14.8616943359375)">
        <path d="M141.53, 111.91L108.33, 145.12A55.77 55.77 0 0 1 108.33, 223.98L181, 151.35z" fill="url(#b)" />
      </g>
    </g>
  </g>
  <g id="Layer_1" transform="translate(11.5425004959106, 12)" style="enable-background:new 0 0 16 16">
    <g id="AddCircled">
      <circle cx="9" cy="9" r="7" fill="#039C23" class="Green" />
    </g>
  </g>
  <g id="Layer_1" transform="translate(11.5425004959106, 12)" style="enable-background:new 0 0 16 16">
    <g id="AddCircled">
      <polygon points="14,8 10,8 10,4 8,4 8,8 4,8 4,10 8,10 8,14 10,14 10,10 14,10  " fill="#FFFFFF" class="White" />
    </g>
  </g>
</svg>