<?xml version="1.0" encoding="utf-8"?>
<!-- Generator: Adobe Illustrator 19.0.0, SVG Export Plug-In . SVG Version: 6.00 Build 0)  -->
<svg version="1.1" id="Layer_1" xmlns="http://www.w3.org/2000/svg" xmlns:xlink="http://www.w3.org/1999/xlink" x="0px" y="0px"
	 viewBox="-290 382 30 30" style="enable-background:new -290 382 30 30;" xml:space="preserve">
<style type="text/css">
	.st0{display:none;}
	.st1{fill:none;stroke:#4B286D;stroke-linecap:round;stroke-linejoin:round;}
	.st2{fill:#66CC00;stroke:#66CC00;}
</style>
<g id="SVGRepo_bgCarrier" class="st0">
</g>
<g id="SVGRepo_tracerCarrier" class="st0">
</g>
<g>
	<path class="st1" d="M-281.5,382.5h13v3h-13V382.5z"/>
	<path class="st1" d="M-281.5,387.5h3v3h-3V387.5z"/>
	<path class="st1" d="M-276.5,387.5h3v3h-3V387.5z"/>
	<path class="st1" d="M-271.5,387.5h3v3h-3V387.5z"/>
	<path class="st1" d="M-281.5,392.5h3v3h-3V392.5z"/>
	<path class="st1" d="M-276.5,392.5h3v3h-3V392.5z"/>
	<path class="st1" d="M-271.5,392.5h3v3h-3V392.5z"/>
	<path class="st1" d="M-281.5,397.5h3v3h-3V397.5z"/>
	<path class="st1" d="M-276.5,397.5h3v3h-3V397.5z"/>
	<path class="st1" d="M-271.5,397.5h3v3h-3V397.5z"/>
	<path class="st1" d="M-281.5,402.5h3v3h-3V402.5z"/>
	<path class="st1" d="M-276.5,402.5h3v3h-3V402.5z"/>
	<path class="st1" d="M-271.5,402.5h3v3h-3V402.5z"/>
	<path class="st1" d="M-283.5,385.5v26h5v-4h7v4h5v-26H-283.5z"/>
	<path class="st1" d="M-286.5,411.5h6.5"/>
	<path class="st1" d="M-270.1,411.5h6.6"/>
	<g id="SVGRepo_iconCarrier">
		<path class="st2" d="M-266.9,404.1c0-0.2,0.2-0.4,0.4-0.4c0.2,0,0.4,0.2,0.4,0.4l0,1.3l1.2,0c0.2,0,0.4,0.2,0.4,0.4
			s-0.2,0.4-0.4,0.4l-1.2,0l0,1.3c0,0.2-0.2,0.4-0.4,0.4c-0.2,0-0.4-0.2-0.4-0.4l0-1.3l-1.2,0c-0.2,0-0.4-0.2-0.4-0.4
			c0-0.2,0.2-0.4,0.4-0.4l1.2,0L-266.9,404.1z"/>
		<path class="st2" d="M-262,405.8c0,2.6-2,4.7-4.5,4.7s-4.5-2.1-4.5-4.7c0-2.6,2-4.7,4.5-4.7C-264,401.1-262,403.2-262,405.8z
			 M-270.2,405.8c0,2.1,1.7,3.9,3.7,3.8c2,0,3.7-1.7,3.7-3.9c0-2.1-1.7-3.9-3.7-3.8C-268.5,402-270.2,403.7-270.2,405.8z"/>
	</g>
</g>
</svg>
