<?xml version='1.0' encoding='UTF-8'?>
<svg viewBox="-2 -8 32 32" xmlns="http://www.w3.org/2000/svg" xmlns:xlink="http://www.w3.org/1999/xlink">
  <g id="Layer_1" transform="translate(-2.00000095367432, -8.00000047683716)" style="enable-background:new 0 0 32 32">
    <g id="Visibility">
      <circle cx="16" cy="16" r="4" fill="#727272" style="fill:#4B286D" />
    </g>
  </g>
  <g id="Layer_1" transform="translate(-2, -8)" style="enable-background:new 0 0 32 32">
    <g id="Visibility">
      <path d="M16, 8C8, 8 2, 16 2, 16C2, 16 8, 24 16, 24C24, 24 30, 16 30, 16C30, 16 24, 8 16, 8zM16, 22C12.7, 22 10, 19.3 10, 16C10, 12.7 12.7, 10 16, 10C19.3, 10 22, 12.7 22, 16C22, 19.3 19.3, 22 16, 22z" fill="#727272" style="fill:#4B286D" />
    </g>
  </g>
  <g id="Layer_1" transform="translate(12, 10)" style="enable-background:new 0 0 16 16">
    <g id="EnvelopeClose">
      <path d="M15, 14L1, 14C0.4, 14 0, 13.6 0, 13L0, 3C0, 2.5 0.4, 2 1, 2L15, 2C15.6, 2 16, 2.5 16, 3L16, 13C16, 13.6 15.6, 14 15, 14z" fill="#FFB115" style="fill:#66CC00" />
    </g>
  </g>
  <g id="Layer_1" transform="translate(12, 9.99999961853027)" style="enable-background:new 0 0 16 16">
    <g id="EnvelopeClose">
      <polygon points="16,3.4 8,8 0,3.4 0,5.4 8,10 16,5.4  " fill="#FFFFFF" class="White" />
    </g>
  </g>
</svg>