<?xml version='1.0' encoding='UTF-8'?>
<svg viewBox="-4 -4 32 32" xmlns="http://www.w3.org/2000/svg" xmlns:xlink="http://www.w3.org/1999/xlink">
  <g id="Layer_1" transform="translate(-4.2, 10) rotate(180, 16.0999977111816, 8.99999904632568)" style="enable-background:new 0 0 32 32">
    <g id="Refresh_1_">
      <path d="M24.5, 7.5C22.3, 5.3 19.3, 4 16, 4C10.1, 4 5.1, 8.3 4.2, 14L8.3, 14C9.2, 10.6 12.3, 8 16, 8C18.2, 8 20.2, 8.9 21.6, 10.4L18, 14L23.7, 14L27.8, 14L28, 14L28, 4L24.5, 7.5z" fill="#039C23" style="fill:#66CC00" />
    </g>
  </g>
  <g id="Layer_1" transform="translate(-4.2, -18) rotate(180, 16.0999977111816, 23)" style="enable-background:new 0 0 32 32">
    <g id="Refresh_1_">
      <path d="M16.2, 24C14, 24 12, 23.1 10.6, 21.6L14.2, 18L8.4, 18L4.4, 18L4.2, 18L4.2, 28L7.7, 24.5C9.9, 26.7 12.9, 28 16.2, 28C22.1, 28 27, 23.7 28, 18L23.9, 18C23, 21.4 19.9, 24 16.2, 24z" fill="#039C23" style="fill:#66CC00" />
    </g>
  </g>
  <g id="Layer_1" transform="translate(11.9999952316284, 11.9999980926514)" style="enable-background:new 0 0 16 16">
    <g>
      <path d="M8, 14C4.7, 14 2, 13.1 2, 12L2, 14C2, 15.1 4.7, 16 8, 16C11.3, 16 14, 15.1 14, 14L14, 12C14, 13.1 11.3, 14 8, 14z" fill="#FFB115" class="Yellow" />
    </g>
  </g>
  <g id="Layer_1" transform="translate(11.9999952316284, 11.9999980926514)" style="enable-background:new 0 0 16 16">
    <g>
      <path d="M8, 10C4.7, 10 2, 9.1 2, 8L2, 10C2, 11.1 4.7, 12 8, 12C11.3, 12 14, 11.1 14, 10L14, 8C14, 9.1 11.3, 10 8, 10z" fill="#FFB115" class="Yellow" />
    </g>
  </g>
  <g id="Layer_1" transform="translate(11.9999952316284, 11.9999980926514)" style="enable-background:new 0 0 16 16">
    <g>
      <path d="M8, 0C4.7, 0 2, 0.9 2, 2L2, 6C2, 7.1 4.7, 8 8, 8C11.3, 8 14, 7.1 14, 6L14, 2C14, 0.9 11.3, 0 8, 0z" fill="#FFB115" class="Yellow" />
    </g>
  </g>
  <g id="Layer_1" transform="translate(11.9999952316284, 11.9999980926514)" style="enable-background:new 0 0 16 16">
    <g>
      <path d="M8, 12C4.7, 12 2, 11.1 2, 10L2, 12C2, 13.1 4.7, 14 8, 14C11.3, 14 14, 13.1 14, 12L14, 10C14, 11.1 11.3, 12 8, 12z" fill="#FFFFFF" style="fill:#F4F4F7" />
    </g>
  </g>
  <g id="Layer_1" transform="translate(11.9999952316284, 11.9999980926514)" style="enable-background:new 0 0 16 16">
    <g>
      <path d="M8, 8C4.7, 8 2, 7.1 2, 6L2, 8C2, 9.1 4.7, 10 8, 10C11.3, 10 14, 9.1 14, 8L14, 6C14, 7.1 11.3, 8 8, 8z" fill="#FFFFFF" style="fill:#F4F4F7" />
    </g>
  </g>
</svg>