<?xml version='1.0' encoding='UTF-8'?>
<svg viewBox="-2 -2 32 32" xmlns="http://www.w3.org/2000/svg" xmlns:xlink="http://www.w3.org/1999/xlink">
  <g id="Layer_1" transform="translate(-6, -4.00000190734863)" style="enable-background:new 0 0 32 32">
    <g id="Database">
      <path d="M16, 24C10.5, 24 6, 22.2 6, 20L6, 24C6, 26.2 10.5, 28 16, 28C21.5, 28 26, 26.2 26, 24L26, 20C26, 22.2 21.5, 24 16, 24z" fill="#FFB115" style="fill:#4B286D" />
    </g>
  </g>
  <g id="Layer_1" transform="translate(-6, -4.00000095367432)" style="enable-background:new 0 0 32 32">
    <g id="Database">
      <path d="M16, 18C10.5, 18 6, 16.2 6, 14L6, 18C6, 20.2 10.5, 22 16, 22C21.5, 22 26, 20.2 26, 18L26, 14C26, 16.2 21.5, 18 16, 18z" fill="#FFB115" style="fill:#4B286D" />
    </g>
  </g>
  <g id="Layer_1" transform="translate(-6, -4)" style="enable-background:new 0 0 32 32">
    <g id="Database">
      <path d="M16, 4C10.5, 4 6, 5.8 6, 8L6, 12C6, 14.2 10.5, 16 16, 16C21.5, 16 26, 14.2 26, 12L26, 8C26, 5.8 21.5, 4 16, 4z" fill="#FFB115" style="fill:#4B286D" />
    </g>
  </g>
  <g id="Layer_1" transform="translate(10, 12)" style="enable-background:new 0 0 16 16">
    <g id="Clock_1_">
      <circle cx="8" cy="8" r="8" fill="#D11C1C" style="fill:#66CC00" />
    </g>
  </g>
  <g id="Layer_1" transform="translate(10, 12)" style="enable-background:new 0 0 16 16">
    <g id="Clock_1_">
      <circle cx="8" cy="8" r="6" fill="#FFFFFF" class="White" />
    </g>
  </g>
  <g id="Layer_1" transform="translate(10, 12)" style="enable-background:new 0 0 16 16">
    <g id="Clock_1_">
      <polygon points="8,8 8,4 6,4 6,8 6,10 8,10 12,10 12,8  " fill="#727272" style="fill:#4B286D" />
    </g>
  </g>
  <g id="Layer_1" transform="translate(6.00000047683716, 6)" style="enable-background:new 0 0 16 16">
    <g id="Edit_1_">
      <polygon points="0,16 4,16 0,12  " fill="#1177D7" style="fill:#4F4E4E" />
    </g>
  </g>
  <g id="Layer_1" transform="translate(6.00000054702759, 5.99999993133545)" style="enable-background:new 0 0 16 16">
    <g id="Edit_1_">
      <rect x="1.9" y="6.5" width="9.5" height="5.6" fill="#FFB115" class="Yellow" transform="matrix(0.7071, -0.7071, 0.7071, 0.7071, -4.6432, 7.4493)" />
    </g>
  </g>
  <g id="Layer_1" transform="translate(5.99999961853027, 5.99999961853027)" style="enable-background:new 0 0 16 16">
    <g id="Edit_1_">
      <path d="M15.6, 2.5L13.5, 0.4C13, -0.1 12.1, -0.1 11.6, 0.4L9.4, 2.7L13.4, 6.7L15.7, 4.4C16.1, 3.9 16.1, 3 15.6, 2.5z" fill="#1177D7" style="fill:#D46193" />
    </g>
  </g>
  <g id="Layer_1" transform="translate(6.00000059890747, 6.00000022735596)" style="enable-background:new 0 0 16 16">
    <g id="Edit_1_">
      <rect x="1.7" y="10.5" width="1.9" height="5.6" fill="#FFFFFF" class="White" transform="matrix(0.7071, -0.7071, 0.7071, 0.7071, -8.6546, 5.7876)" />
    </g>
  </g>
  <g id="Layer_1" transform="translate(6.00000056762695, 6.00000004882813)" style="enable-background:new 0 0 16 16">
    <g id="Edit_1_">
      <rect x="9.7" y="2.5" width="1.9" height="5.6" fill="#FFFFFF" class="White" transform="matrix(0.7071, -0.7071, 0.7071, 0.7071, -0.6318, 9.1109)" />
    </g>
  </g>
</svg>